<?xml version="1.0" encoding="utf-8"?>
<!-- Generator: Adobe Illustrator 24.1.1, SVG Export Plug-In . SVG Version: 6.00 Build 0)  -->
<svg version="1.1" id="Layer_1" xmlns="http://www.w3.org/2000/svg" xmlns:xlink="http://www.w3.org/1999/xlink" x="0px" y="0px"
	 viewBox="0 0 512 512" style="enable-background:new 0 0 512 512;" xml:space="preserve">
<style type="text/css">
	.st0{fill-rule:evenodd;clip-rule:evenodd;fill:#BD081C;}
</style>
<g>
	<path class="st0" d="M256,0C114.6,0,0,114.6,0,256c0,108.4,67.5,201.1,162.7,238.4c-2.2-20.3-4.3-51.3,0.9-73.4
		c4.6-20,30-127.3,30-127.3s-7.7-15.3-7.7-38c0-35.6,20.6-62.2,46.3-62.2c21.8,0,32.4,16.4,32.4,36.1c0,22-14,54.8-21.2,85.2
		c-6,25.5,12.8,46.3,37.9,46.3c45.5,0,80.5-48,80.5-117.2c0-61.3-44-104.2-106.9-104.2c-72.8,0-115.6,54.6-115.6,111.1
		c0,22,8.5,45.6,19,58.4c2.1,2.5,2.4,4.8,1.8,7.3c-1.9,8.1-6.3,25.5-7.1,29c-1.1,4.7-3.7,5.7-8.6,3.4c-32-14.9-52-61.6-52-99.2
		c0-80.8,58.7-154.9,169.2-154.9c88.8,0,157.8,63.3,157.8,147.9c0,88.2-55.6,159.2-132.9,159.2c-25.9,0-50.3-13.5-58.7-29.4
		c0,0-12.8,48.9-15.9,60.9c-5.8,22.2-21.4,50.1-31.8,67.1c24,7.4,49.4,11.4,75.8,11.4c141.4,0,256-114.6,256-256
		C512,114.6,397.4,0,256,0"/>
</g>
</svg>
